<svg xmlns="http://www.w3.org/2000/svg" width="22" height="22" viewBox="0 0 22 22" fill="none">
  <path opacity="0.4"
    d="M18.1958 11.8617C18.1958 12.595 18.7917 13.2 19.525 13.2C19.8733 13.2 20.1667 13.4842 20.1667 13.8325C20.1667 17.3525 19.1033 18.4158 15.5833 18.4158H10.7708V16.9583C10.7708 16.6008 10.4958 16.3075 10.1475 16.28V13.6675C10.4958 13.64 10.7708 13.3467 10.7708 12.9892V9.01083C10.7708 8.65333 10.4958 8.36 10.1475 8.3325V4.51917H15.5833C19.1033 4.51917 20.1667 5.5825 20.1667 9.1025V9.88167C20.1667 10.2392 19.8733 10.5233 19.525 10.5233C18.7917 10.5233 18.1958 11.1192 18.1958 11.8617Z"
    fill="white" />
  <path
    d="M10.1475 8.33251C9.77166 8.33251 9.39583 8.63501 9.39583 9.01085V12.9892C9.39583 13.365 9.70749 13.6767 10.0833 13.6767C10.1017 13.6767 10.1292 13.6767 10.1475 13.6675V16.28C10.1292 16.2708 10.1017 16.2708 10.0833 16.2708C9.70749 16.2708 9.39583 16.5825 9.39583 16.9583V18.4158H7.78249C6.05916 18.4158 5.16999 17.1233 4.36333 15.1708L4.20749 14.7858C4.07916 14.4558 4.23499 14.08 4.56499 13.9517C4.90416 13.8233 5.16999 13.5575 5.30749 13.2092C5.45416 12.87 5.45416 12.4942 5.31666 12.155C5.02333 11.4492 4.21666 11.11 3.50166 11.3942C3.34583 11.4675 3.16249 11.4675 3.00666 11.3942C2.85083 11.33 2.73166 11.2017 2.65833 11.0367L2.52083 10.67C1.15499 7.35168 1.75083 5.93085 5.06916 4.55585L7.31499 3.63001C7.64499 3.49251 8.02083 3.64835 8.14916 3.97835L10.1475 8.33251Z"
    fill="white" />
</svg>